<svg width="39" height="12" viewBox="0 0 39 12" fill="none" xmlns="http://www.w3.org/2000/svg">
<path d="M2.376 9.192C1.72 9.192 1.2 8.996 0.816 8.604C0.432 8.212 0.24 7.648 0.24 6.912C0.24 6.192 0.392 5.544 0.696 4.968C1 4.392 1.416 3.94 1.944 3.612C2.472 3.276 3.072 3.108 3.744 3.108C4.192 3.108 4.548 3.172 4.812 3.3C5.084 3.428 5.22 3.632 5.22 3.912C5.22 4.04 5.188 4.188 5.124 4.356C5.06 4.516 4.98 4.656 4.884 4.776C4.796 4.888 4.7 4.944 4.596 4.944C4.54 4.944 4.48 4.924 4.416 4.884C4.36 4.836 4.308 4.788 4.26 4.74C4.188 4.668 4.088 4.58 3.96 4.476C3.832 4.364 3.692 4.268 3.54 4.188C3.388 4.108 3.24 4.068 3.096 4.068C2.896 4.068 2.72 4.18 2.568 4.404C2.416 4.628 2.3 4.928 2.22 5.304C2.14 5.672 2.1 6.08 2.1 6.528C2.1 6.968 2.16 7.312 2.28 7.56C2.408 7.8 2.612 7.92 2.892 7.92C3.148 7.92 3.384 7.88 3.6 7.8C3.816 7.72 4.016 7.624 4.2 7.512C4.272 7.464 4.344 7.42 4.416 7.38C4.496 7.332 4.564 7.308 4.62 7.308C4.668 7.308 4.704 7.328 4.728 7.368C4.76 7.4 4.776 7.448 4.776 7.512C4.776 7.656 4.72 7.824 4.608 8.016C4.504 8.208 4.344 8.396 4.128 8.58C3.92 8.756 3.668 8.9 3.372 9.012C3.084 9.132 2.752 9.192 2.376 9.192ZM6.28959 9.192C5.84159 9.192 5.48959 9.008 5.23359 8.64C4.98559 8.264 4.86159 7.756 4.86159 7.116C4.86159 6.532 4.95359 5.996 5.13759 5.508C5.32959 5.02 5.58559 4.6 5.90559 4.248C6.23359 3.888 6.60159 3.612 7.00959 3.42C7.41759 3.22 7.84159 3.12 8.28159 3.12C8.62559 3.12 8.93759 3.168 9.21759 3.264C9.50559 3.352 9.74959 3.444 9.94959 3.54L9.60159 5.148C9.39359 5.004 9.16159 4.856 8.90559 4.704C8.64959 4.544 8.40159 4.412 8.16159 4.308C7.92159 4.196 7.71759 4.14 7.54959 4.14C7.38959 4.14 7.23759 4.268 7.09359 4.524C6.95759 4.78 6.84559 5.104 6.75759 5.496C6.67759 5.88 6.63759 6.276 6.63759 6.684C6.63759 7.036 6.65759 7.332 6.69759 7.572C6.73759 7.804 6.80959 7.92 6.91359 7.92C7.00159 7.92 7.14959 7.816 7.35759 7.608C7.57359 7.392 7.84159 7.02 8.16159 6.492C8.48159 5.964 8.83759 5.228 9.22959 4.284L9.69759 5.436C9.26559 6.396 8.85359 7.152 8.46159 7.704C8.06959 8.248 7.69359 8.632 7.33359 8.856C6.98159 9.08 6.63359 9.192 6.28959 9.192ZM9.34959 9.12C9.09359 9.12 8.92159 9.064 8.83359 8.952C8.74559 8.84 8.70159 8.696 8.70159 8.52C8.70159 8.384 8.71759 8.208 8.74959 7.992C8.78959 7.768 8.83759 7.528 8.89359 7.272C8.94959 7.016 9.00959 6.776 9.07359 6.552L9.33759 5.652L8.92959 5.34L9.21759 3.528C9.47359 3.488 9.71759 3.436 9.94959 3.372C10.1896 3.308 10.4016 3.252 10.5856 3.204C10.7696 3.156 10.9056 3.132 10.9936 3.132C11.1456 3.132 11.2216 3.212 11.2216 3.372C11.2216 3.444 11.1696 3.62 11.0656 3.9C10.9696 4.18 10.8656 4.536 10.7536 4.968C10.6416 5.392 10.5576 5.868 10.5016 6.396L10.2376 9.12H9.34959ZM12.7385 9.192C12.3545 9.192 12.0505 9.08 11.8265 8.856C11.6025 8.632 11.5225 8.28 11.5865 7.8L12.0425 4.38H11.7305C11.5545 4.38 11.4665 4.3 11.4665 4.14C11.4665 4.044 11.5225 3.908 11.6345 3.732C11.7545 3.548 11.9065 3.356 12.0905 3.156C12.2825 2.948 12.4785 2.752 12.6785 2.568C12.8865 2.384 13.0825 2.232 13.2665 2.112C13.4505 1.992 13.5985 1.932 13.7105 1.932C13.8385 1.932 13.9305 1.976 13.9865 2.064C14.0505 2.144 14.0745 2.268 14.0585 2.436L13.9625 3.3H15.1265C15.2465 3.3 15.3145 3.32 15.3305 3.36C15.3465 3.4 15.3425 3.464 15.3185 3.552C15.2145 3.88 15.1185 4.1 15.0305 4.212C14.9505 4.324 14.7985 4.38 14.5745 4.38H13.7945L13.5065 6.708C13.4905 6.86 13.4745 7.004 13.4585 7.14C13.4505 7.276 13.4465 7.4 13.4465 7.512C13.4465 7.616 13.4705 7.708 13.5185 7.788C13.5745 7.86 13.6745 7.896 13.8185 7.896C14.0025 7.896 14.1625 7.856 14.2985 7.776C14.4425 7.696 14.5505 7.656 14.6225 7.656C14.7345 7.656 14.7905 7.716 14.7905 7.836C14.7905 7.94 14.7465 8.068 14.6585 8.22C14.5705 8.372 14.4385 8.524 14.2625 8.676C14.0945 8.82 13.8825 8.94 13.6265 9.036C13.3705 9.14 13.0745 9.192 12.7385 9.192ZM16.4094 9.192C15.9614 9.192 15.6094 9.008 15.3534 8.64C15.1054 8.264 14.9814 7.756 14.9814 7.116C14.9814 6.532 15.0734 5.996 15.2574 5.508C15.4494 5.02 15.7054 4.6 16.0254 4.248C16.3534 3.888 16.7214 3.612 17.1294 3.42C17.5374 3.22 17.9614 3.12 18.4014 3.12C18.7454 3.12 19.0574 3.168 19.3374 3.264C19.6254 3.352 19.8694 3.444 20.0694 3.54L19.7214 5.148C19.5134 5.004 19.2814 4.856 19.0254 4.704C18.7694 4.544 18.5214 4.412 18.2814 4.308C18.0414 4.196 17.8374 4.14 17.6694 4.14C17.5094 4.14 17.3574 4.268 17.2134 4.524C17.0774 4.78 16.9654 5.104 16.8774 5.496C16.7974 5.88 16.7574 6.276 16.7574 6.684C16.7574 7.036 16.7774 7.332 16.8174 7.572C16.8574 7.804 16.9294 7.92 17.0334 7.92C17.1214 7.92 17.2694 7.816 17.4774 7.608C17.6934 7.392 17.9614 7.02 18.2814 6.492C18.6014 5.964 18.9574 5.228 19.3494 4.284L19.8174 5.436C19.3854 6.396 18.9734 7.152 18.5814 7.704C18.1894 8.248 17.8134 8.632 17.4534 8.856C17.1014 9.08 16.7534 9.192 16.4094 9.192ZM19.4694 9.12C19.2134 9.12 19.0414 9.064 18.9534 8.952C18.8654 8.84 18.8214 8.696 18.8214 8.52C18.8214 8.384 18.8374 8.208 18.8694 7.992C18.9094 7.768 18.9574 7.528 19.0134 7.272C19.0694 7.016 19.1294 6.776 19.1934 6.552L19.4574 5.652L19.0494 5.34L19.3374 3.528C19.5934 3.488 19.8374 3.436 20.0694 3.372C20.3094 3.308 20.5214 3.252 20.7054 3.204C20.8894 3.156 21.0254 3.132 21.1134 3.132C21.2654 3.132 21.3414 3.212 21.3414 3.372C21.3414 3.444 21.2894 3.62 21.1854 3.9C21.0894 4.18 20.9854 4.536 20.8734 4.968C20.7614 5.392 20.6774 5.868 20.6214 6.396L20.3574 9.12H19.4694ZM23.9503 9.192C23.7023 9.192 23.4183 9.144 23.0983 9.048C22.7783 8.96 22.4703 8.848 22.1743 8.712L22.7503 7.164C22.8863 7.316 23.0663 7.472 23.2903 7.632C23.5223 7.784 23.7583 7.912 23.9983 8.016C24.2463 8.12 24.4583 8.172 24.6343 8.172C24.8343 8.172 25.0183 8.072 25.1863 7.872C25.3623 7.664 25.5023 7.372 25.6063 6.996C25.7103 6.612 25.7623 6.156 25.7623 5.628C25.7623 5.276 25.7463 4.992 25.7143 4.776C25.6823 4.552 25.6143 4.44 25.5103 4.44C25.4463 4.44 25.2983 4.544 25.0663 4.752C24.8423 4.952 24.5623 5.312 24.2263 5.832C23.8903 6.352 23.5223 7.084 23.1223 8.028L22.7023 7.008C23.1503 5.992 23.5663 5.204 23.9503 4.644C24.3423 4.084 24.7103 3.692 25.0543 3.468C25.4063 3.236 25.7423 3.12 26.0623 3.12C26.5583 3.12 26.9183 3.308 27.1423 3.684C27.3743 4.06 27.4903 4.564 27.4903 5.196C27.4903 5.972 27.3383 6.66 27.0343 7.26C26.7303 7.86 26.3103 8.332 25.7743 8.676C25.2463 9.02 24.6383 9.192 23.9503 9.192ZM21.8983 11.628C21.7703 11.628 21.6623 11.572 21.5743 11.46C21.4943 11.356 21.4343 11.228 21.3943 11.076C21.3623 10.932 21.3463 10.8 21.3463 10.68C21.3463 10.52 21.3543 10.324 21.3703 10.092C21.3943 9.868 21.4223 9.596 21.4543 9.276L22.1503 3.108H23.1223C23.2583 3.108 23.3743 3.156 23.4703 3.252C23.5743 3.348 23.6543 3.464 23.7103 3.6C23.7743 3.728 23.8063 3.852 23.8063 3.972C23.8063 4.124 23.7423 4.356 23.6143 4.668C23.4943 4.972 23.3503 5.348 23.1823 5.796L22.8343 6.708H23.3863L23.2063 8.328L23.1223 8.484L23.0503 11.628H21.8983ZM28.4708 9.264C28.1908 9.264 27.9468 9.168 27.7388 8.976C27.5388 8.784 27.4388 8.536 27.4388 8.232C27.4388 7.864 27.5548 7.58 27.7868 7.38C28.0268 7.172 28.3028 7.068 28.6148 7.068C28.9028 7.068 29.1428 7.152 29.3348 7.32C29.5348 7.488 29.6348 7.744 29.6348 8.088C29.6348 8.424 29.5188 8.704 29.2868 8.928C29.0548 9.152 28.7828 9.264 28.4708 9.264ZM30.7587 9.192C30.6067 9.192 30.4787 9.084 30.3747 8.868C30.2787 8.644 30.2307 8.396 30.2307 8.124C30.2307 7.94 30.2347 7.768 30.2427 7.608C30.2587 7.448 30.2827 7.232 30.3147 6.96L30.7467 3.108H31.9707C32.1707 3.108 32.3107 3.196 32.3907 3.372C32.4707 3.548 32.5107 3.748 32.5107 3.972C32.5107 4.084 32.5027 4.204 32.4867 4.332C32.4707 4.452 32.4467 4.64 32.4147 4.896L32.1867 6.852C32.1467 7.244 32.1067 7.58 32.0667 7.86C32.0267 8.14 31.9907 8.388 31.9587 8.604C31.9347 8.812 31.9107 9.008 31.8867 9.192H30.7587ZM31.8147 2.712C31.5347 2.712 31.2907 2.616 31.0827 2.424C30.8827 2.232 30.7827 1.984 30.7827 1.68C30.7827 1.312 30.8987 1.028 31.1307 0.827999C31.3707 0.62 31.6467 0.516 31.9587 0.516C32.2467 0.516 32.4867 0.6 32.6787 0.767999C32.8787 0.936 32.9787 1.192 32.9787 1.536C32.9787 1.872 32.8627 2.152 32.6307 2.376C32.3987 2.6 32.1267 2.712 31.8147 2.712ZM35.3471 9.18C34.5711 9.18 33.9751 8.988 33.5591 8.604C33.1431 8.212 32.9351 7.644 32.9351 6.9C32.9351 6.356 33.0191 5.856 33.1871 5.4C33.3551 4.936 33.5911 4.532 33.8951 4.188C34.1991 3.844 34.5511 3.58 34.9511 3.396C35.3511 3.204 35.7791 3.108 36.2351 3.108C36.9951 3.108 37.5831 3.304 37.9991 3.696C38.4231 4.088 38.6351 4.652 38.6351 5.388C38.6351 5.932 38.5511 6.436 38.3831 6.9C38.2151 7.356 37.9791 7.756 37.6751 8.1C37.3791 8.444 37.0311 8.712 36.6311 8.904C36.2391 9.088 35.8111 9.18 35.3471 9.18ZM35.5391 8.28C35.7631 8.28 35.9671 8.164 36.1511 7.932C36.3351 7.7 36.4831 7.38 36.5951 6.972C36.7151 6.556 36.7751 6.072 36.7751 5.52C36.7751 5.024 36.6991 4.648 36.5471 4.392C36.3951 4.136 36.2111 4.008 35.9951 4.008C35.7791 4.008 35.5791 4.124 35.3951 4.356C35.2111 4.588 35.0631 4.912 34.9511 5.328C34.8471 5.736 34.7951 6.216 34.7951 6.768C34.7951 7.256 34.8631 7.632 34.9991 7.896C35.1431 8.152 35.3231 8.28 35.5391 8.28Z" fill="#F97316"/>
</svg>
