<svg width="128" height="40" viewBox="0 0 128 40" fill="none" xmlns="http://www.w3.org/2000/svg">
<path d="M8.316 30.672C6.02 30.672 4.2 29.986 2.856 28.614C1.512 27.242 0.84 25.268 0.84 22.692C0.84 20.172 1.372 17.904 2.436 15.888C3.5 13.872 4.956 12.29 6.804 11.142C8.652 9.966 10.752 9.378 13.104 9.378C14.672 9.378 15.918 9.602 16.842 10.05C17.794 10.498 18.27 11.212 18.27 12.192C18.27 12.64 18.158 13.158 17.934 13.746C17.71 14.306 17.43 14.796 17.094 15.216C16.786 15.608 16.45 15.804 16.086 15.804C15.89 15.804 15.68 15.734 15.456 15.594C15.26 15.426 15.078 15.258 14.91 15.09C14.658 14.838 14.308 14.53 13.86 14.166C13.412 13.774 12.922 13.438 12.39 13.158C11.858 12.878 11.34 12.738 10.836 12.738C10.136 12.738 9.52 13.13 8.988 13.914C8.456 14.698 8.05 15.748 7.77 17.064C7.49 18.352 7.35 19.78 7.35 21.348C7.35 22.888 7.56 24.092 7.98 24.96C8.428 25.8 9.142 26.22 10.122 26.22C11.018 26.22 11.844 26.08 12.6 25.8C13.356 25.52 14.056 25.184 14.7 24.792C14.952 24.624 15.204 24.47 15.456 24.33C15.736 24.162 15.974 24.078 16.17 24.078C16.338 24.078 16.464 24.148 16.548 24.288C16.66 24.4 16.716 24.568 16.716 24.792C16.716 25.296 16.52 25.884 16.128 26.556C15.764 27.228 15.204 27.886 14.448 28.53C13.72 29.146 12.838 29.65 11.802 30.042C10.794 30.462 9.632 30.672 8.316 30.672ZM22.0136 30.672C20.4456 30.672 19.2136 30.028 18.3176 28.74C17.4496 27.424 17.0156 25.646 17.0156 23.406C17.0156 21.362 17.3376 19.486 17.9816 17.778C18.6536 16.07 19.5496 14.6 20.6696 13.368C21.8176 12.108 23.1056 11.142 24.5336 10.47C25.9616 9.77 27.4456 9.42 28.9856 9.42C30.1896 9.42 31.2816 9.588 32.2616 9.924C33.2696 10.232 34.1236 10.554 34.8236 10.89L33.6056 16.518C32.8776 16.014 32.0656 15.496 31.1696 14.964C30.2736 14.404 29.4056 13.942 28.5656 13.578C27.7256 13.186 27.0116 12.99 26.4236 12.99C25.8636 12.99 25.3316 13.438 24.8276 14.334C24.3516 15.23 23.9596 16.364 23.6516 17.736C23.3716 19.08 23.2316 20.466 23.2316 21.894C23.2316 23.126 23.3016 24.162 23.4416 25.002C23.5816 25.814 23.8336 26.22 24.1976 26.22C24.5056 26.22 25.0236 25.856 25.7516 25.128C26.5076 24.372 27.4456 23.07 28.5656 21.222C29.6856 19.374 30.9316 16.798 32.3036 13.494L33.9416 17.526C32.4296 20.886 30.9876 23.532 29.6156 25.464C28.2436 27.368 26.9276 28.712 25.6676 29.496C24.4356 30.28 23.2176 30.672 22.0136 30.672ZM32.7236 30.42C31.8276 30.42 31.2256 30.224 30.9176 29.832C30.6096 29.44 30.4556 28.936 30.4556 28.32C30.4556 27.844 30.5116 27.228 30.6236 26.472C30.7636 25.688 30.9316 24.848 31.1276 23.952C31.3236 23.056 31.5336 22.216 31.7576 21.432L32.6816 18.282L31.2536 17.19L32.2616 10.848C33.1576 10.708 34.0116 10.526 34.8236 10.302C35.6636 10.078 36.4056 9.882 37.0496 9.714C37.6936 9.546 38.1696 9.462 38.4776 9.462C39.0096 9.462 39.2756 9.742 39.2756 10.302C39.2756 10.554 39.0936 11.17 38.7296 12.15C38.3936 13.13 38.0296 14.376 37.6376 15.888C37.2456 17.372 36.9516 19.038 36.7556 20.886L35.8316 30.42H32.7236ZM44.5846 30.672C43.2406 30.672 42.1766 30.28 41.3926 29.496C40.6086 28.712 40.3286 27.48 40.5526 25.8L42.1486 13.83H41.0566C40.4406 13.83 40.1326 13.55 40.1326 12.99C40.1326 12.654 40.3286 12.178 40.7206 11.562C41.1406 10.918 41.6726 10.246 42.3166 9.546C42.9886 8.818 43.6746 8.132 44.3746 7.488C45.1026 6.844 45.7886 6.312 46.4326 5.892C47.0766 5.472 47.5946 5.262 47.9866 5.262C48.4346 5.262 48.7566 5.416 48.9526 5.724C49.1766 6.004 49.2606 6.438 49.2046 7.026L48.8686 10.05H52.9426C53.3626 10.05 53.6006 10.12 53.6566 10.26C53.7126 10.4 53.6986 10.624 53.6146 10.932C53.2506 12.08 52.9146 12.85 52.6066 13.242C52.3266 13.634 51.7946 13.83 51.0106 13.83H48.2806L47.2726 21.978C47.2166 22.51 47.1606 23.014 47.1046 23.49C47.0766 23.966 47.0626 24.4 47.0626 24.792C47.0626 25.156 47.1466 25.478 47.3146 25.758C47.5106 26.01 47.8606 26.136 48.3646 26.136C49.0086 26.136 49.5686 25.996 50.0446 25.716C50.5486 25.436 50.9266 25.296 51.1786 25.296C51.5706 25.296 51.7666 25.506 51.7666 25.926C51.7666 26.29 51.6126 26.738 51.3046 27.27C50.9966 27.802 50.5346 28.334 49.9186 28.866C49.3306 29.37 48.5886 29.79 47.6926 30.126C46.7966 30.49 45.7606 30.672 44.5846 30.672ZM57.433 30.672C55.865 30.672 54.633 30.028 53.737 28.74C52.869 27.424 52.435 25.646 52.435 23.406C52.435 21.362 52.757 19.486 53.401 17.778C54.073 16.07 54.969 14.6 56.089 13.368C57.237 12.108 58.525 11.142 59.953 10.47C61.381 9.77 62.865 9.42 64.405 9.42C65.609 9.42 66.701 9.588 67.681 9.924C68.689 10.232 69.543 10.554 70.243 10.89L69.025 16.518C68.297 16.014 67.485 15.496 66.589 14.964C65.693 14.404 64.825 13.942 63.985 13.578C63.145 13.186 62.431 12.99 61.843 12.99C61.283 12.99 60.751 13.438 60.247 14.334C59.771 15.23 59.379 16.364 59.071 17.736C58.791 19.08 58.651 20.466 58.651 21.894C58.651 23.126 58.721 24.162 58.861 25.002C59.001 25.814 59.253 26.22 59.617 26.22C59.925 26.22 60.443 25.856 61.171 25.128C61.927 24.372 62.865 23.07 63.985 21.222C65.105 19.374 66.351 16.798 67.723 13.494L69.361 17.526C67.849 20.886 66.407 23.532 65.035 25.464C63.663 27.368 62.347 28.712 61.087 29.496C59.855 30.28 58.637 30.672 57.433 30.672ZM68.143 30.42C67.247 30.42 66.645 30.224 66.337 29.832C66.029 29.44 65.875 28.936 65.875 28.32C65.875 27.844 65.931 27.228 66.043 26.472C66.183 25.688 66.351 24.848 66.547 23.952C66.743 23.056 66.953 22.216 67.177 21.432L68.101 18.282L66.673 17.19L67.681 10.848C68.577 10.708 69.431 10.526 70.243 10.302C71.083 10.078 71.825 9.882 72.469 9.714C73.113 9.546 73.589 9.462 73.897 9.462C74.429 9.462 74.695 9.742 74.695 10.302C74.695 10.554 74.513 11.17 74.149 12.15C73.813 13.13 73.449 14.376 73.057 15.888C72.665 17.372 72.371 19.038 72.175 20.886L71.251 30.42H68.143ZM83.8261 30.672C82.9581 30.672 81.9641 30.504 80.8441 30.168C79.7241 29.86 78.6461 29.468 77.6101 28.992L79.6261 23.574C80.1021 24.106 80.7321 24.652 81.5161 25.212C82.3281 25.744 83.1541 26.192 83.9941 26.556C84.8621 26.92 85.6041 27.102 86.2201 27.102C86.9201 27.102 87.5641 26.752 88.1521 26.052C88.7681 25.324 89.2581 24.302 89.6221 22.986C89.9861 21.642 90.1681 20.046 90.1681 18.198C90.1681 16.966 90.1121 15.972 90.0001 15.216C89.8881 14.432 89.6501 14.04 89.2861 14.04C89.0621 14.04 88.5441 14.404 87.7321 15.132C86.9481 15.832 85.9681 17.092 84.7921 18.912C83.6161 20.732 82.3281 23.294 80.9281 26.598L79.4581 23.028C81.0261 19.472 82.4821 16.714 83.8261 14.754C85.1981 12.794 86.4861 11.422 87.6901 10.638C88.9221 9.826 90.0981 9.42 91.2181 9.42C92.9541 9.42 94.2141 10.078 94.9981 11.394C95.8101 12.71 96.2161 14.474 96.2161 16.686C96.2161 19.402 95.6841 21.81 94.6201 23.91C93.5561 26.01 92.0861 27.662 90.2101 28.866C88.3621 30.07 86.2341 30.672 83.8261 30.672ZM76.6441 39.198C76.1961 39.198 75.8181 39.002 75.5101 38.61C75.2301 38.246 75.0201 37.798 74.8801 37.266C74.7681 36.762 74.7121 36.3 74.7121 35.88C74.7121 35.32 74.7401 34.634 74.7961 33.822C74.8801 33.038 74.9781 32.086 75.0901 30.966L77.5261 9.378H80.9281C81.4041 9.378 81.8101 9.546 82.1461 9.882C82.5101 10.218 82.7901 10.624 82.9861 11.1C83.2101 11.548 83.3221 11.982 83.3221 12.402C83.3221 12.934 83.0981 13.746 82.6501 14.838C82.2301 15.902 81.7261 17.218 81.1381 18.786L79.9201 21.978H81.8521L81.2221 27.648L80.9281 28.194L80.6761 39.198H76.6441ZM99.564 30.672C99.032 30.672 98.584 30.294 98.22 29.538C97.884 28.754 97.716 27.886 97.716 26.934C97.716 26.29 97.73 25.688 97.758 25.128C97.814 24.568 97.898 23.812 98.01 22.86L99.522 9.378H103.806C104.506 9.378 104.996 9.686 105.276 10.302C105.556 10.918 105.696 11.618 105.696 12.402C105.696 12.794 105.668 13.214 105.612 13.662C105.556 14.082 105.472 14.74 105.36 15.636L104.562 22.482C104.422 23.854 104.282 25.03 104.142 26.01C104.002 26.99 103.876 27.858 103.764 28.614C103.68 29.342 103.596 30.028 103.512 30.672H99.564ZM103.26 7.992C102.28 7.992 101.426 7.656 100.698 6.984C99.998 6.312 99.648 5.444 99.648 4.38C99.648 3.092 100.054 2.098 100.866 1.398C101.706 0.669999 102.672 0.305999 103.764 0.305999C104.772 0.305999 105.612 0.599999 106.284 1.188C106.984 1.776 107.334 2.672 107.334 3.876C107.334 5.052 106.928 6.032 106.116 6.816C105.304 7.6 104.352 7.992 103.26 7.992ZM115.623 30.63C112.907 30.63 110.821 29.958 109.365 28.614C107.909 27.242 107.181 25.254 107.181 22.65C107.181 20.746 107.475 18.996 108.063 17.4C108.651 15.776 109.477 14.362 110.541 13.158C111.605 11.954 112.837 11.03 114.237 10.386C115.637 9.714 117.135 9.378 118.731 9.378C121.391 9.378 123.449 10.064 124.905 11.436C126.389 12.808 127.131 14.782 127.131 17.358C127.131 19.262 126.837 21.026 126.249 22.65C125.661 24.246 124.835 25.646 123.771 26.85C122.735 28.054 121.517 28.992 120.117 29.664C118.745 30.308 117.247 30.63 115.623 30.63ZM116.295 27.48C117.079 27.48 117.793 27.074 118.437 26.262C119.081 25.45 119.599 24.33 119.991 22.902C120.411 21.446 120.621 19.752 120.621 17.82C120.621 16.084 120.355 14.768 119.823 13.872C119.291 12.976 118.647 12.528 117.891 12.528C117.135 12.528 116.435 12.934 115.791 13.746C115.147 14.558 114.629 15.692 114.237 17.148C113.873 18.576 113.691 20.256 113.691 22.188C113.691 23.896 113.929 25.212 114.405 26.136C114.909 27.032 115.539 27.48 116.295 27.48Z" fill="#FFC72C"/>
</svg>
